<svg xmlns="http://www.w3.org/2000/svg" viewBox="0 0 147.78 58.92"><defs><style>.cls-1{fill:#bd232d;}</style></defs><title>logo</title><g id="Layer_2" data-name="Layer 2"><g id="flyer-front"><path class="cls-1" d="M7.63,30.49c-3.74,0-6.91.11-6.91.11v-.36c1.84,0,2.7-1.69,2.7-4.5V9c0-2.56-.86-3.21-2.7-3.21V5.4s3.17.11,6.91.11c1.84,0,4.39-.11,6.62-.11,8.39,0,14.33,4.5,14.33,12,0,8.39-5.47,13.21-13.61,13.21C11.7,30.6,9.72,30.49,7.63,30.49ZM19.51,18.4c0-8.21-2.16-12.57-6.62-12.57A4.41,4.41,0,0,0,11.84,6V27c0,2.55.9,3.2,2.38,3.2C17,30.24,19.51,27.72,19.51,18.4Z" transform="translate(-0.65 -4.39)"/><path class="cls-1" d="M41.54,30.6s-1.73-.11-5.36-.11-6.09.11-6.09.11v-.32c1.41,0,2.06-1,2.06-2.52V16.56c0-1.4-.61-1.91-1.91-1.91l-.15-.28A31,31,0,0,0,40.14,12.6V28.91c0,1.08.61,1.37,1.4,1.37ZM32,8c0-2,1.33-3.57,4.1-3.57S40.21,5.94,40.21,8s-1.37,3.45-4.14,3.45S32,9.94,32,8Z" transform="translate(-0.65 -4.39)"/><path class="cls-1" d="M64.69,21.53c0,5-4,9.79-11.23,9.79-5.55,0-10.15-3.46-10.15-8.93,0-5,4.1-9.79,11.26-9.79C60.12,12.6,64.69,16.06,64.69,21.53Zm-8.42.72c0-5.76-1.12-9.36-2.52-9.36-1.23,0-2,2.3-2,8.78,0,5.8,1.15,9.36,2.56,9.36C55.51,31,56.27,28.76,56.27,22.25Z" transform="translate(-0.65 -4.39)"/><path class="cls-1" d="M77.43,30.6s-1.72-.11-5.36-.11S66,30.6,66,30.6v-.32c1.4,0,2.05-1,2.05-2.52V16.56c0-1.4-.61-1.91-1.91-1.91L66,14.37A31,31,0,0,0,76,12.6v2.81c2.12-.79,4-2.81,6.84-2.81s4.53,1.77,4.53,5.08V28.37c0,1.62.58,1.91,2,1.91v.32s-2.37-.11-5.94-.11c-3.34,0-5.36.11-5.36.11v-.32c1,0,1.33-.47,1.33-1.7V16.74c0-1-.57-1.58-1.29-1.58A7.07,7.07,0,0,0,76,15.7V28.91c0,1.08.61,1.37,1.4,1.37Z" transform="translate(-0.65 -4.39)"/><path class="cls-1" d="M.65,55.22C.65,49.1,5,44.6,11.91,44.6c.44,0,.87.07,1.3.11V39.42c0-1.3-.68-1.69-1.94-1.69l-.15-.33a30.34,30.34,0,0,0,10.05-1.8V59.4c0,1.4.61,1.87,1.9,1.87l.18.29a28.12,28.12,0,0,0-9.75,1.76l-.29-2.81c-1.73.94-3.13,2.81-5.9,2.81C3.28,63.32.65,59.76.65,55.22Zm12.56,5v-8c0-5.4-.9-7.34-2.12-7.34s-2,2.3-2,8.78c0,6,1.3,7.42,2.23,7.42C12,61.09,12.31,60.62,13.21,60.22Z" transform="translate(-0.65 -4.39)"/><path class="cls-1" d="M37.91,61.3a8.34,8.34,0,0,0,4.89-1.54l.18.14c-1.94,2.3-4.57,3.42-8.35,3.42-6.73,0-10.3-3.56-10.3-8.93s4.83-9.79,11.13-9.79c4.89,0,8.42,2.27,8.67,7l-.46.47H32.79c0,.54,0,1.08,0,1.55C32.76,57.92,34.27,61.3,37.91,61.3Zm-1-10a13.47,13.47,0,0,0,.15-2c0-2.77-.8-4.39-1.88-4.39s-1.9,2.23-2.3,6.87Z" transform="translate(-0.65 -4.39)"/><path class="cls-1" d="M65.23,50.43v.15c4.64,0,7.49,1,8.64,5.22L75,59.9c.29,1.15,1,2.12,2.09,2.12a2.55,2.55,0,0,0,.69-.1l0,.28a13,13,0,0,1-5.47,1.08c-4.25,0-6.95-1.58-7.49-5.5l-.57-4.14c-.22-1.62-.9-2.85-3.13-2.85V59c0,2.55.86,3.2,2.7,3.2v.36s-3.17-.11-6.92-.11S50,62.6,50,62.6v-.36c1.84,0,2.7-1.69,2.7-4.5V41c0-2.56-.86-3.21-2.7-3.21V37.4s3.17.11,6.91.11c2.49,0,4.61-.11,7.13-.11,5.29,0,10,1.62,10,6.37C74,47.16,71.56,49.82,65.23,50.43Zm-4.1-.1c2.91,0,4.24-2.31,4.24-6.56,0-3.45-1-5.94-3.34-5.94a2.54,2.54,0,0,0-.9.15Z" transform="translate(-0.65 -4.39)"/><path class="cls-1" d="M98.38,53.53c0,5-4,9.79-11.23,9.79C81.61,63.32,77,59.86,77,54.39c0-5,4.11-9.79,11.27-9.79C93.81,44.6,98.38,48.06,98.38,53.53ZM90,54.25c0-5.76-1.11-9.36-2.52-9.36-1.22,0-2,2.3-2,8.78,0,5.8,1.15,9.36,2.55,9.36C89.21,63,90,60.76,90,54.25Z" transform="translate(-0.65 -4.39)"/><path class="cls-1" d="M115.12,50.9h-.32c-.54-2.81-2.63-6-5.9-6a1.59,1.59,0,0,0-1.8,1.66c0,4,9.65,4.42,9.65,10.58,0,3.78-3.1,6.19-8.86,6.19-2.52,0-2.84-.79-7.23-.79l-.33-6.45h.29c.79,3.53,3.63,6.88,6.84,6.88,1.44,0,2.23-.72,2.23-1.84,0-4.14-9.43-4.78-9.43-10.72,0-3.71,3.35-5.8,8.35-5.8,2.52,0,3.92.83,6.73.83Z" transform="translate(-0.65 -4.39)"/><path class="cls-1" d="M133.77,50.9h-.32c-.54-2.81-2.63-6-5.91-6a1.58,1.58,0,0,0-1.79,1.66c0,4,9.64,4.42,9.64,10.58,0,3.78-3.09,6.19-8.85,6.19-2.52,0-2.85-.79-7.24-.79L119,56.08h.29c.79,3.53,3.63,6.88,6.84,6.88,1.43,0,2.23-.72,2.23-1.84,0-4.14-9.43-4.78-9.43-10.72,0-3.71,3.34-5.8,8.35-5.8,2.52,0,3.92.83,6.73.83Z" transform="translate(-0.65 -4.39)"/><path class="cls-1" d="M148.42,62.6s-1.72-.11-5.36-.11-6.08.11-6.08.11v-.32c1.4,0,2.05-1,2.05-2.52V48.56c0-1.4-.61-1.91-1.91-1.91l-.14-.28a31,31,0,0,0,10-1.77V60.91c0,1.08.61,1.37,1.4,1.37ZM138.85,40c0-2,1.33-3.57,4.1-3.57s4.14,1.55,4.14,3.57-1.37,3.45-4.14,3.45S138.85,41.94,138.85,40Z" transform="translate(-0.65 -4.39)"/></g></g></svg>