<svg xmlns="http://www.w3.org/2000/svg" viewBox="0 0 168.29 18.63"><defs><style>.cls-1{fill:#bd232d;}</style></defs><title>logo-oneline</title><g id="Layer_2" data-name="Layer 2"><g id="card-back"><path class="cls-1" d="M4.65,18.08c-2.52,0-4.65.07-4.65.07v-.24c1.23,0,1.81-1.14,1.81-3V3.61c0-1.72-.58-2.16-1.81-2.16V1.21s2.13.07,4.65.07c1.23,0,2.95-.07,4.45-.07,5.64,0,9.63,3,9.63,8.06,0,5.64-3.68,8.88-9.15,8.88C7.38,18.15,6.05,18.08,4.65,18.08Zm8-8.13c0-5.52-1.45-8.45-4.45-8.45a2.8,2.8,0,0,0-.7.1V15.75c0,1.72.6,2.16,1.6,2.16C11,17.91,12.63,16.21,12.63,10Z"/><path class="cls-1" d="M27.45,18.15s-1.16-.07-3.61-.07-4.09.07-4.09.07v-.22c.95,0,1.38-.65,1.38-1.69V8.71c0-.94-.41-1.28-1.28-1.28l-.1-.19A20.82,20.82,0,0,0,26.5,6.05V17c0,.73.42.92.95.92ZM21,2.93c0-1.36.9-2.4,2.76-2.4s2.78,1,2.78,2.4-.92,2.32-2.78,2.32S21,4.26,21,2.93Z"/><path class="cls-1" d="M43,12.05c0,3.34-2.71,6.58-7.55,6.58-3.73,0-6.82-2.32-6.82-6,0-3.34,2.76-6.58,7.57-6.58C39.94,6.05,43,8.37,43,12.05Zm-5.66.49c0-3.88-.75-6.3-1.69-6.3S34.3,7.79,34.3,12.15c0,3.89.77,6.29,1.72,6.29S37.35,16.92,37.35,12.54Z"/><path class="cls-1" d="M51.58,18.15s-1.16-.07-3.6-.07-4.09.07-4.09.07v-.22c.94,0,1.38-.65,1.38-1.69V8.71c0-.94-.41-1.28-1.29-1.28l-.09-.19a20.82,20.82,0,0,0,6.75-1.19V7.94c1.43-.53,2.71-1.89,4.6-1.89s3,1.19,3,3.41v7.19c0,1.09.38,1.28,1.33,1.28v.22s-1.6-.07-4-.07c-2.25,0-3.6.07-3.6.07v-.22c.65,0,.89-.31.89-1.14v-8c0-.7-.38-1.06-.87-1.06a4.88,4.88,0,0,0-1.4.36V17c0,.73.41.92.94.92Z"/><path class="cls-1" d="M66.79,13.19c0-4.11,2.9-7.14,7.57-7.14.29,0,.58,0,.87.07V2.57c0-.88-.46-1.14-1.3-1.14l-.1-.22A20.37,20.37,0,0,0,80.58,0V16c0,.94.41,1.25,1.29,1.25l.12.2a18.91,18.91,0,0,0-6.56,1.18l-.2-1.88c-1.16.63-2.1,1.88-4,1.88C68.55,18.63,66.79,16.24,66.79,13.19Zm8.44,3.36V11.18c0-3.63-.6-4.94-1.42-4.94s-1.36,1.55-1.36,5.91c0,4,.87,5,1.5,5C74.39,17.13,74.63,16.82,75.23,16.55Z"/><path class="cls-1" d="M91.84,17.28a5.63,5.63,0,0,0,3.29-1l.12.1a6.79,6.79,0,0,1-5.61,2.29c-4.53,0-6.92-2.39-6.92-6S86,6.05,90.19,6.05c3.3,0,5.67,1.52,5.84,4.7l-.32.31H88.4c0,.36,0,.73,0,1C88.38,15,89.4,17.28,91.84,17.28Zm-.7-6.7a9.75,9.75,0,0,0,.1-1.38c0-1.87-.54-3-1.26-3s-1.29,1.5-1.55,4.63Z"/><path class="cls-1" d="M112.34,10v.1c3.13,0,5,.65,5.81,3.51l.75,2.76c.2.77.66,1.42,1.41,1.42a1.61,1.61,0,0,0,.46-.07l0,.19a8.63,8.63,0,0,1-3.68.73c-2.85,0-4.67-1.06-5-3.7l-.39-2.79a1.9,1.9,0,0,0-2.11-1.91v5.54c0,1.72.59,2.16,1.82,2.16v.24s-2.13-.07-4.65-.07-4.64.07-4.64.07v-.24c1.23,0,1.81-1.14,1.81-3V3.61c0-1.72-.58-2.16-1.81-2.16V1.21s2.13.07,4.64.07c1.67,0,3.1-.07,4.79-.07,3.56,0,6.71,1.09,6.71,4.28C118.25,7.77,116.6,9.56,112.34,10Zm-2.76-.07c2,0,2.86-1.55,2.86-4.41,0-2.32-.7-4-2.25-4a1.66,1.66,0,0,0-.61.1Z"/><path class="cls-1" d="M134.64,12.05c0,3.34-2.71,6.58-7.55,6.58-3.73,0-6.83-2.32-6.83-6,0-3.34,2.76-6.58,7.58-6.58C131.56,6.05,134.64,8.37,134.64,12.05Zm-5.67.49c0-3.88-.75-6.3-1.69-6.3s-1.35,1.55-1.35,5.91c0,3.89.77,6.29,1.71,6.29S129,16.92,129,12.54Z"/><path class="cls-1" d="M145.9,10.29h-.22c-.37-1.89-1.77-4-4-4a1.07,1.07,0,0,0-1.21,1.12c0,2.68,6.48,3,6.48,7.11,0,2.54-2.08,4.16-5.95,4.16-1.69,0-1.91-.53-4.86-.53L136,13.77h.19c.54,2.37,2.45,4.62,4.6,4.62,1,0,1.5-.48,1.5-1.23,0-2.78-6.34-3.22-6.34-7.21,0-2.5,2.25-3.9,5.62-3.9,1.69,0,2.63.56,4.52.56Z"/><path class="cls-1" d="M158.43,10.29h-.21c-.37-1.89-1.77-4-4-4A1.07,1.07,0,0,0,153,7.36c0,2.68,6.48,3,6.48,7.11,0,2.54-2.08,4.16-6,4.16-1.69,0-1.91-.53-4.86-.53l-.22-4.33h.19c.53,2.37,2.45,4.62,4.6,4.62,1,0,1.5-.48,1.5-1.23,0-2.78-6.34-3.22-6.34-7.21,0-2.5,2.25-3.9,5.61-3.9,1.7,0,2.64.56,4.53.56Z"/><path class="cls-1" d="M168.29,18.15s-1.16-.07-3.61-.07-4.09.07-4.09.07v-.22c.95,0,1.38-.65,1.38-1.69V8.71c0-.94-.41-1.28-1.28-1.28l-.1-.19a20.82,20.82,0,0,0,6.75-1.19V17c0,.73.42.92.95.92ZM161.85,2.93c0-1.36.9-2.4,2.76-2.4s2.78,1,2.78,2.4-.92,2.32-2.78,2.32S161.85,4.26,161.85,2.93Z"/></g></g></svg>