<svg xmlns="http://www.w3.org/2000/svg" viewBox="0 0 147.78 58.92"><defs><style>.cls-1{fill:#bd232d;}</style></defs><title>logo</title><g id="Layer_2" data-name="Layer 2"><g id="flyer-front"><path class="cls-1" d="M7,26.1c-3.74,0-6.91.11-6.91.11v-.37c1.84,0,2.7-1.69,2.7-4.49V4.57c0-2.55-.86-3.2-2.7-3.2V1s3.17.11,6.91.11c1.84,0,4.4-.11,6.63-.11C22,1,27.93,5.51,27.93,13c0,8.38-5.47,13.21-13.6,13.21C11.05,26.21,9.07,26.1,7,26.1ZM18.86,14c0-8.2-2.16-12.56-6.62-12.56a4.36,4.36,0,0,0-1,.14V22.64c0,2.56.89,3.2,2.37,3.2C16.38,25.84,18.86,23.33,18.86,14Z"/><path class="cls-1" d="M40.89,26.21s-1.72-.11-5.36-.11-6.08.11-6.08.11v-.33c1.4,0,2.05-1,2.05-2.52V12.17c0-1.41-.61-1.91-1.91-1.91L29.45,10a31.15,31.15,0,0,0,10-1.76v16.3c0,1.08.61,1.37,1.4,1.37ZM31.32,3.56c0-2,1.33-3.56,4.1-3.56s4.14,1.55,4.14,3.56S38.19,7,35.42,7,31.32,5.54,31.32,3.56Z"/><path class="cls-1" d="M64,17.13c0,5-4,9.79-11.23,9.79-5.54,0-10.15-3.45-10.15-8.92,0-5,4.1-9.79,11.27-9.79C59.47,8.21,64,11.66,64,17.13Zm-8.42.72c0-5.76-1.12-9.35-2.52-9.35-1.23,0-2,2.3-2,8.78,0,5.79,1.15,9.36,2.56,9.36C54.86,26.64,55.62,24.37,55.62,17.85Z"/><path class="cls-1" d="M76.79,26.21s-1.73-.11-5.37-.11-6.08.11-6.08.11v-.33c1.4,0,2-1,2-2.52V12.17c0-1.41-.61-1.91-1.91-1.91L65.34,10a31.15,31.15,0,0,0,10-1.76V11c2.13-.79,4-2.8,6.84-2.8s4.54,1.76,4.54,5.07V24c0,1.62.57,1.91,2,1.91v.33s-2.38-.11-5.94-.11c-3.35,0-5.37.11-5.37.11v-.33c1,0,1.34-.47,1.34-1.69V12.35c0-1-.58-1.59-1.3-1.59a7.15,7.15,0,0,0-2.09.54V24.51c0,1.08.61,1.37,1.41,1.37Z"/><path class="cls-1" d="M0,50.83c0-6.12,4.32-10.62,11.27-10.62.43,0,.86.07,1.29.11V35c0-1.29-.68-1.69-1.94-1.69L10.48,33a30.32,30.32,0,0,0,10-1.8V55c0,1.41.61,1.87,1.91,1.87l.18.29a28.15,28.15,0,0,0-9.76,1.76l-.29-2.8c-1.73.93-3.13,2.8-5.9,2.8C2.63,58.92,0,55.36,0,50.83Zm12.56,5v-8c0-5.4-.9-7.34-2.12-7.34s-2,2.3-2,8.78c0,6,1.3,7.41,2.24,7.41C11.3,56.69,11.66,56.23,12.56,55.83Z"/><path class="cls-1" d="M37.26,56.91a8.33,8.33,0,0,0,4.89-1.55l.18.15c-1.94,2.3-4.57,3.41-8.35,3.41-6.73,0-10.29-3.56-10.29-8.92s4.82-9.79,11.12-9.79c4.9,0,8.42,2.26,8.68,7l-.47.47H32.15c0,.54,0,1.08,0,1.55C32.11,53.53,33.62,56.91,37.26,56.91Zm-1-10a13.56,13.56,0,0,0,.15-2c0-2.77-.79-4.39-1.87-4.39s-1.91,2.23-2.31,6.87Z"/><path class="cls-1" d="M64.58,46v.14c4.65,0,7.49,1,8.64,5.22l1.12,4.11c.28,1.15,1,2.12,2.08,2.12a2.53,2.53,0,0,0,.69-.11l0,.29a13,13,0,0,1-5.47,1.08c-4.24,0-6.94-1.58-7.48-5.51l-.58-4.14c-.22-1.62-.9-2.84-3.13-2.84v8.24c0,2.56.86,3.2,2.7,3.2v.37S60,58.1,56.27,58.1s-6.91.11-6.91.11v-.37c1.83,0,2.7-1.69,2.7-4.49V36.57c0-2.55-.87-3.2-2.7-3.2V33s3.16.11,6.91.11c2.48,0,4.6-.11,7.12-.11,5.3,0,10,1.62,10,6.37C73.36,42.76,70.92,45.43,64.58,46Zm-4.1-.11c2.91,0,4.25-2.3,4.25-6.55,0-3.46-1.05-5.94-3.35-5.94a2.82,2.82,0,0,0-.9.14Z"/><path class="cls-1" d="M97.74,49.13c0,5-4,9.79-11.23,9.79C81,58.92,76.36,55.47,76.36,50c0-5,4.1-9.79,11.26-9.79C93.17,40.21,97.74,43.66,97.74,49.13Zm-8.43.72c0-5.76-1.11-9.35-2.52-9.35-1.22,0-2,2.3-2,8.78,0,5.79,1.15,9.36,2.55,9.36C88.56,58.64,89.31,56.37,89.31,49.85Z"/><path class="cls-1" d="M114.48,46.51h-.33c-.54-2.81-2.62-6-5.9-6a1.59,1.59,0,0,0-1.8,1.65c0,4,9.65,4.43,9.65,10.58,0,3.78-3.1,6.19-8.86,6.19-2.52,0-2.84-.79-7.23-.79l-.33-6.44H100c.79,3.53,3.64,6.88,6.84,6.88,1.44,0,2.23-.73,2.23-1.84,0-4.14-9.43-4.79-9.43-10.73,0-3.71,3.35-5.79,8.35-5.79,2.52,0,3.93.83,6.73.83Z"/><path class="cls-1" d="M133.12,46.51h-.32c-.54-2.81-2.63-6-5.9-6a1.59,1.59,0,0,0-1.8,1.65c0,4,9.65,4.43,9.65,10.58,0,3.78-3.1,6.19-8.86,6.19-2.52,0-2.84-.79-7.23-.79l-.33-6.44h.29c.79,3.53,3.63,6.88,6.84,6.88,1.44,0,2.23-.73,2.23-1.84,0-4.14-9.43-4.79-9.43-10.73,0-3.71,3.35-5.79,8.35-5.79,2.52,0,3.92.83,6.73.83Z"/><path class="cls-1" d="M147.78,58.21s-1.73-.11-5.37-.11-6.08.11-6.08.11v-.33c1.4,0,2-1,2-2.52V44.17c0-1.41-.61-1.91-1.91-1.91l-.14-.29a31.15,31.15,0,0,0,10-1.76v16.3c0,1.08.62,1.37,1.41,1.37ZM138.2,35.56c0-2,1.33-3.56,4.11-3.56s4.14,1.55,4.14,3.56S145.08,39,142.31,39,138.2,37.54,138.2,35.56Z"/></g></g></svg>